SplineFontDB: 3.0
FontName: Jones-it-MediumItalic
FullName: Jones* Medium Italic
FamilyName: Jones* Medium
Weight: Medium
Copyright: 
UComments: "2016-1-29: Created with FontForge (http://fontforge.org)"
Version: 002.000
ItalicAngle: -10
UnderlinePosition: -150
UnderlineWidth: 75
Ascent: 784
Descent: 216
InvalidEm: 0
LayerCount: 2
Layer: 0 0 "Back" 1
Layer: 1 0 "Fore" 0
XUID: [1021 31 -699969567 4970488]
FSType: 0
OS2Version: 2
OS2_WeightWidthSlopeOnly: 0
OS2_UseTypoMetrics: 0
CreationTime: 1454127431
ModificationTime: 1454902331
PfmFamily: 17
TTFWeight: 500
TTFWidth: 5
LineGap: 0
VLineGap: 0
OS2TypoAscent: 784
OS2TypoAOffset: 0
OS2TypoDescent: -216
OS2TypoDOffset: 0
OS2TypoLinegap: 200
OS2WinAscent: 850
OS2WinAOffset: 0
OS2WinDescent: 300
OS2WinDOffset: 0
HheadAscent: 850
HheadAOffset: 0
HheadDescent: -300
HheadDOffset: 0
OS2SubXSize: 650
OS2SubYSize: 600
OS2SubXOff: 0
OS2SubYOff: 75
OS2SupXSize: 650
OS2SupYSize: 600
OS2SupXOff: 0
OS2SupYOff: 350
OS2StrikeYSize: 50
OS2StrikeYPos: 314
OS2CapHeight: 700
OS2XHeight: 520
OS2Vendor: 'PfEd'
Lookup: 5 0 0 "lig" { "lig-1"  } ['calt' ('DFLT' <'dflt' > 'grek' <'dflt' > 'latn' <'dflt' > ) ]
Lookup: 1 0 0 "fi" { "fi-1"  } ['ss01' ('DFLT' <'dflt' > 'grek' <'dflt' > 'latn' <'dflt' > ) ]
Lookup: 258 0 0 "kern" { "kerning" [150,0,2] } ['kern' ('DFLT' <'dflt' > 'grek' <'dflt' > 'latn' <'dflt' > ) ]
MarkAttachClasses: 1
DEI: 91125
KernClass2: 13 10 "kerning"
 3 A L
 5 D O Q
 3 F P
 3 K X
 3 V W
 13 b e h m n o p
 15 a c g q r s u z
 14 d f i j l t fi
 3 k x
 3 v w
 3 R B
 3 T Y
 1 A
 7 C G O Q
 3 T Y
 3 V W
 15 a m n p r s u z
 11 c d e g o q
 18 b f h i j k l t fi
 5 v w y
 1 x

StartChar: E
Encoding: 69 69 0
Width: 670
VWidth: 0
Flags: HMW
AnchorPoint: "ced" 495 0 basechar 0
AnchorPoint: "dot" 499.009 760 basechar 0
LayerCount: 2
Fore
SplineSet
171.94140625 408 m 5
 631.94140625 408 l 5
 614.30859375 308 l 1
 154.30859375 308 l 1
 171.94140625 408 l 5
223.428710938 700 m 1
 733.428710938 700 l 1
 715.795898438 600 l 1
 205.795898438 600 l 1
 223.428710938 700 l 1
117.6328125 100 m 1
 627.6328125 100 l 1
 610 0 l 1
 100 0 l 1
 117.6328125 100 l 1
223.428710938 700 m 1
 333.428710938 700 l 1
 210 0 l 1
 100 0 l 1
 223.428710938 700 l 1
EndSplineSet
EndChar

StartChar: I
Encoding: 73 73 1
Width: 300
VWidth: 0
Flags: HMW
AnchorPoint: "ced" 145 0 basechar 0
AnchorPoint: "dot" 274.009 760 basechar 0
LayerCount: 2
Fore
SplineSet
218.428710938 700 m 1
 328.428710938 700 l 5
 205 0 l 5
 95 0 l 1
 218.428710938 700 l 1
EndSplineSet
EndChar

StartChar: F
Encoding: 70 70 2
Width: 665
VWidth: 0
Flags: HMW
AnchorPoint: "ced" 145 0 basechar 0
AnchorPoint: "dot" 499.009 760 basechar 0
LayerCount: 2
Fore
SplineSet
168.415039062 388 m 1
 628.415039062 388 l 1
 610.782226562 288 l 5
 150.782226562 288 l 5
 168.415039062 388 l 1
223.428710938 700 m 1
 733.428710938 700 l 1
 715.795898438 600 l 1
 205.795898438 600 l 1
 223.428710938 700 l 1
223.428710938 700 m 1
 333.428710938 700 l 1
 210 0 l 1
 100 0 l 1
 223.428710938 700 l 1
EndSplineSet
EndChar

StartChar: H
Encoding: 72 72 3
Width: 765
VWidth: 0
Flags: HMW
AnchorPoint: "ced" 625 0 basechar 0
AnchorPoint: "dot" 514.009 760 basechar 0
LayerCount: 2
Fore
SplineSet
678.428710938 700 m 5
 788.428710938 700 l 5
 665 0 l 5
 555 0 l 5
 678.428710938 700 l 5
171.94140625 408 m 1
 681.94140625 408 l 1
 664.30859375 308 l 1
 154.30859375 308 l 1
 171.94140625 408 l 1
223.428710938 700 m 1
 333.428710938 700 l 1
 210 0 l 1
 100 0 l 1
 223.428710938 700 l 1
EndSplineSet
EndChar

StartChar: L
Encoding: 76 76 4
Width: 655
VWidth: 0
Flags: HMW
AnchorPoint: "ced" 365 0 basechar 0
AnchorPoint: "dot" 519.009 760 basechar 0
LayerCount: 2
Fore
SplineSet
117.6328125 100 m 5
 627.6328125 100 l 5
 610 0 l 1
 100 0 l 1
 117.6328125 100 l 5
223.428710938 700 m 1
 333.428710938 700 l 1
 210 0 l 1
 100 0 l 1
 223.428710938 700 l 1
EndSplineSet
EndChar

StartChar: T
Encoding: 84 84 5
Width: 690
VWidth: 0
Flags: HMW
AnchorPoint: "ced" 347 0 basechar 0
AnchorPoint: "dot" 479.009 760 basechar 0
LayerCount: 2
Fore
SplineSet
173.428710938 700 m 1
 763.428710938 700 l 1
 745.795898438 600 l 1
 155.795898438 600 l 1
 173.428710938 700 l 1
413.428710938 700 m 5
 523.428710938 700 l 5
 400 0 l 5
 290 0 l 5
 413.428710938 700 l 5
EndSplineSet
EndChar

StartChar: O
Encoding: 79 79 7
Width: 850
VWidth: 0
Flags: HMW
AnchorPoint: "ced" 425 0 basechar 0
AnchorPoint: "dot" 559.009 760 basechar 0
LayerCount: 2
Fore
SplineSet
241.71484375 350 m 0
 215.970703125 204 299.869140625 90 440.869140625 90 c 4
 581.869140625 90 705.970703125 204 731.71484375 350 c 4
 757.458007812 496 673.559570312 610 532.559570312 610 c 0
 391.559570312 610 267.458007812 496 241.71484375 350 c 0
131.71484375 350 m 0
 166.803710938 549 355.192382812 710 550.192382812 710 c 0
 745.192382812 710 876.803710938 549 841.71484375 350 c 0
 806.625 151 618.236328125 -10 423.236328125 -10 c 0
 228.236328125 -10 96.625 151 131.71484375 350 c 0
EndSplineSet
EndChar

StartChar: C
Encoding: 67 67 8
Width: 732
VWidth: 0
Flags: HMW
AnchorPoint: "ced" 425 0 basechar 0
AnchorPoint: "dot" 559.009 760 basechar 0
LayerCount: 2
Fore
SplineSet
241.71484375 350 m 0
 215.970703125 204 299.869140625 90 440.869140625 90 c 0
 523.869140625 90 598.041015625 125 655.915039062 181 c 5
 711.924804688 113 l 1
 633.700195312 38 529.236328125 -10 423.236328125 -10 c 0
 228.236328125 -10 96.625 151 131.71484375 350 c 0
 166.803710938 549 355.192382812 710 550.192382812 710 c 0
 656.192382812 710 743.728515625 662 795.50390625 587 c 1
 715.513671875 519 l 5
 677.387695312 575 615.559570312 610 532.559570312 610 c 0
 391.559570312 610 267.458007812 496 241.71484375 350 c 0
EndSplineSet
EndChar

StartChar: A
Encoding: 65 65 9
Width: 800
VWidth: 0
Flags: HMW
AnchorPoint: "ced" 697 0 basechar 0
AnchorPoint: "ring" 513.429 700 basechar 0
AnchorPoint: "dot" 524.009 760 basechar 0
LayerCount: 2
Fore
SplineSet
473.428710938 700 m 1
 573.428710938 700 l 1
 561.666015625 690 l 1
 471.666015625 690 l 1
 473.428710938 700 l 1
241.608398438 270 m 1
 633.608398438 270 l 1
 616.857421875 175 l 5
 224.857421875 175 l 5
 241.608398438 270 l 1
660 0 m 1
 471.666015625 690 l 1
 573.428710938 700 l 1
 770 0 l 1
 660 0 l 1
473.428710938 700 m 1
 571.666015625 690 l 1
 140 0 l 1
 30 0 l 1
 473.428710938 700 l 1
EndSplineSet
EndChar

StartChar: V
Encoding: 86 86 10
Width: 780
VWidth: 0
Flags: HMW
AnchorPoint: "ced" 390 0 basechar 0
AnchorPoint: "dot" 523.009 760 basechar 0
LayerCount: 2
Fore
SplineSet
440 0 m 5
 340 0 l 1
 345.290039062 30 l 1
 445.290039062 30 l 5
 440 0 l 5
268.428710938 700 m 1
 445.290039062 30 l 1
 340 0 l 1
 153.428710938 700 l 1
 268.428710938 700 l 1
440 0 m 1
 345.290039062 30 l 1
 758.428710938 700 l 1
 873.428710938 700 l 1
 440 0 l 1
EndSplineSet
EndChar

StartChar: G
Encoding: 71 71 11
Width: 782
VWidth: 0
Flags: HMW
AnchorPoint: "ced" 425 0 basechar 0
AnchorPoint: "dot" 559.009 760 basechar 0
LayerCount: 2
Fore
SplineSet
767.241210938 370 m 1
 749.608398438 270 l 1
 472.608398438 270 l 1
 490.241210938 370 l 1
 767.241210938 370 l 1
721.924804688 113 m 1
 611.924804688 113 l 1
 657.241210938 370 l 1
 767.241210938 370 l 1
 721.924804688 113 l 1
241.71484375 350 m 4
 215.970703125 204 299.869140625 90 440.869140625 90 c 4
 523.869140625 90 602.159179688 120 665.915039062 181 c 1
 721.924804688 113 l 1
 643.700195312 38 529.236328125 -10 423.236328125 -10 c 0
 228.236328125 -10 96.625 151 131.71484375 350 c 0
 166.803710938 549 355.192382812 710 550.192382812 710 c 0
 656.192382812 710 743.728515625 662 795.50390625 587 c 1
 715.513671875 519 l 1
 677.387695312 575 615.559570312 610 532.559570312 610 c 0
 391.559570312 610 267.458007812 496 241.71484375 350 c 4
EndSplineSet
EndChar

StartChar: D
Encoding: 68 68 12
Width: 810
VWidth: 0
Flags: HMW
AnchorPoint: "ced" 325 0 basechar 0
AnchorPoint: "dot" 479.009 760 basechar 0
LayerCount: 2
Fore
SplineSet
223.428710938 700 m 1
 503.428710938 700 l 1
 485.795898438 600 l 1
 205.795898438 600 l 1
 223.428710938 700 l 1
117.6328125 100 m 1
 397.6328125 100 l 1
 380 0 l 1
 100 0 l 1
 117.6328125 100 l 1
223.428710938 700 m 5
 333.428710938 700 l 5
 210 0 l 5
 100 0 l 5
 223.428710938 700 l 5
397.6328125 100 m 1
 538.6328125 100 665.970703125 204 691.71484375 350 c 0
 717.458007812 496 626.795898438 600 485.795898438 600 c 1
 503.428710938 700 l 1
 698.428710938 700 836.803710938 549 801.71484375 350 c 0
 766.625 151 575 0 380 0 c 1
 397.6328125 100 l 1
EndSplineSet
EndChar

StartChar: U
Encoding: 85 85 13
Width: 760
VWidth: 0
Flags: HMW
AnchorPoint: "ced" 380 0 basechar 0
AnchorPoint: "dot" 514.009 760 basechar 0
LayerCount: 2
Fore
SplineSet
624.37109375 280 m 1
 698.428710938 700 l 1
 803.428710938 700 l 1
 729.37109375 280 l 1
 624.37109375 280 l 1
129.37109375 280 m 1
 203.428710938 700 l 1
 308.428710938 700 l 1
 234.37109375 280 l 1
 129.37109375 280 l 1
624.37109375 280 m 5
 729.37109375 280 l 1
 699.572265625 111 547.236328125 -10 378.236328125 -10 c 4
 209.236328125 -10 99.572265625 111 129.37109375 280 c 1
 234.37109375 280 l 5
 215.15234375 171 287.98828125 85 394.98828125 85 c 4
 501.98828125 85 605.15234375 171 624.37109375 280 c 5
EndSplineSet
EndChar

StartChar: o
Encoding: 111 111 14
Width: 650
VWidth: 0
Flags: HMW
AnchorPoint: "ced" 325 0 basechar 0
AnchorPoint: "dot" 443.668 673 basechar 0
LayerCount: 2
Fore
SplineSet
205.844726562 260 m 0
 188.388671875 161 242.98828125 85 339.98828125 85 c 0
 436.98828125 85 518.388671875 161 535.844726562 260 c 0
 553.301757812 359 498.702148438 435 401.702148438 435 c 0
 304.702148438 435 223.301757812 359 205.844726562 260 c 0
100.844726562 260 m 0
 127.118164062 409 269.453125 530 418.453125 530 c 0
 567.453125 530 667.118164062 409 640.844726562 260 c 0
 614.572265625 111 472.236328125 -10 323.236328125 -10 c 0
 174.236328125 -10 74.572265625 111 100.844726562 260 c 0
EndSplineSet
EndChar

StartChar: B
Encoding: 66 66 15
Width: 695
VWidth: 0
Flags: HMW
AnchorPoint: "ced" 327 0 basechar 0
AnchorPoint: "dot" 442.009 760 basechar 0
LayerCount: 2
Fore
SplineSet
431.94140625 408 m 1
 514.94140625 408 563.291992188 427 576.516601562 502 c 0
 589.740234375 577 548.795898438 600 465.795898438 600 c 1
 483.428710938 700 l 1
 612.428710938 700 710.143554688 636 686.516601562 502 c 0
 663.064453125 369 548.951171875 340 419.951171875 340 c 1
 431.94140625 408 l 1
223.428710938 700 m 5
 333.428710938 700 l 5
 210 0 l 5
 100 0 l 5
 223.428710938 700 l 5
117.6328125 100 m 1
 417.6328125 100 l 1
 400 0 l 1
 100 0 l 1
 117.6328125 100 l 1
223.428710938 700 m 1
 483.428710938 700 l 1
 465.795898438 600 l 1
 205.795898438 600 l 1
 223.428710938 700 l 1
171.94140625 408 m 1
 471.94140625 408 l 1
 454.30859375 308 l 1
 154.30859375 308 l 1
 171.94140625 408 l 1
417.6328125 100 m 1
 500.6328125 100 556.159179688 120 570.265625 200 c 0
 584.37109375 280 537.30859375 308 454.30859375 308 c 1
 466.123046875 375 l 1
 595.123046875 375 704.774414062 339 680.265625 200 c 0
 655.755859375 61 529 0 400 0 c 1
 417.6328125 100 l 1
EndSplineSet
EndChar

StartChar: K
Encoding: 75 75 16
Width: 745
VWidth: 0
Flags: HMW
AnchorPoint: "ced" 665 0 basechar 0
AnchorPoint: "dot" 479.009 760 basechar 0
LayerCount: 2
Fore
SplineSet
348.823242188 413 m 1
 472.823242188 413 l 1
 730 0 l 1
 606 0 l 1
 348.823242188 413 l 1
678.428710938 700 m 1
 803.428710938 700 l 1
 236.5 207 l 1
 135.555664062 230 l 1
 678.428710938 700 l 1
213.428710938 700 m 1
 323.428710938 700 l 1
 200 0 l 1
 90 0 l 1
 213.428710938 700 l 1
EndSplineSet
EndChar

StartChar: R
Encoding: 82 82 17
Width: 718
VWidth: 0
Flags: HMW
AnchorPoint: "ced" 610 0 basechar 0
AnchorPoint: "dot" 474.009 760 basechar 0
LayerCount: 2
Fore
SplineSet
441.361328125 348 m 1
 529.361328125 348 598.001953125 397 611.2265625 472 c 0
 624.451171875 547 573.795898438 600 485.795898438 600 c 1
 503.428710938 700 l 1
 642.428710938 700 745.030273438 607 721.2265625 472 c 0
 697.598632812 338 562.729492188 248 423.729492188 248 c 1
 441.361328125 348 l 1
223.428710938 700 m 1
 333.428710938 700 l 1
 210 0 l 1
 100 0 l 1
 223.428710938 700 l 1
248.428710938 700 m 1
 503.428710938 700 l 1
 485.795898438 600 l 1
 230.795898438 600 l 1
 248.428710938 700 l 1
186.361328125 348 m 1
 441.361328125 348 l 1
 423.729492188 248 l 1
 168.729492188 248 l 1
 186.361328125 348 l 1
374.424804688 320 m 5
 499.424804688 320 l 1
 683 0 l 1
 558 0 l 5
 374.424804688 320 l 5
EndSplineSet
EndChar

StartChar: P
Encoding: 80 80 18
Width: 643
VWidth: 0
Flags: HMW
AnchorPoint: "ced" 140 0 basechar 0
AnchorPoint: "dot" 444.009 760 basechar 0
LayerCount: 2
Fore
SplineSet
411.361328125 348 m 5
 499.361328125 348 568.001953125 397 581.2265625 472 c 4
 594.451171875 547 543.795898438 600 455.795898438 600 c 5
 473.428710938 700 l 5
 612.428710938 700 715.030273438 607 691.2265625 472 c 4
 667.598632812 338 532.729492188 248 393.729492188 248 c 5
 411.361328125 348 l 5
213.428710938 700 m 5
 323.428710938 700 l 5
 200 0 l 5
 90 0 l 5
 213.428710938 700 l 5
218.428710938 700 m 5
 473.428710938 700 l 5
 455.795898438 600 l 5
 200.795898438 600 l 5
 218.428710938 700 l 5
156.361328125 348 m 5
 411.361328125 348 l 5
 393.729492188 248 l 5
 138.729492188 248 l 5
 156.361328125 348 l 5
EndSplineSet
EndChar

StartChar: Q
Encoding: 81 81 19
Width: 849
VWidth: 0
Flags: HMW
AnchorPoint: "ced" 425 0 basechar 0
AnchorPoint: "dot" 559.009 760 basechar 0
LayerCount: 2
Fore
SplineSet
727.241210938 -44 m 1
 506.497070312 224 l 1
 586.487304688 292 l 5
 807.408203125 25 l 5
 727.241210938 -44 l 1
241.71484375 350 m 0
 215.970703125 204 299.869140625 90 440.869140625 90 c 0
 581.869140625 90 705.970703125 204 731.71484375 350 c 0
 757.458007812 496 673.559570312 610 532.559570312 610 c 0
 391.559570312 610 267.458007812 496 241.71484375 350 c 0
131.71484375 350 m 0
 166.803710938 549 355.192382812 710 550.192382812 710 c 0
 745.192382812 710 876.803710938 549 841.71484375 350 c 0
 806.625 151 618.236328125 -10 423.236328125 -10 c 0
 228.236328125 -10 96.625 151 131.71484375 350 c 0
EndSplineSet
EndChar

StartChar: J
Encoding: 74 74 20
Width: 599
VWidth: 0
Flags: HMW
AnchorPoint: "ced" 265 0 basechar 0
AnchorPoint: "dot" 389.009 760 basechar 0
LayerCount: 2
Fore
SplineSet
449.844726562 260 m 1
 527.428710938 700 l 1
 632.428710938 700 l 1
 554.844726562 260 l 1
 449.844726562 260 l 1
449.844726562 260 m 1
 554.844726562 260 l 1
 523.282226562 81 402.236328125 -10 263.236328125 -10 c 0
 155.236328125 -10 79.2294921875 41 47.68359375 157 c 1
 138.67578125 208 l 5
 159.041015625 125 210.98828125 85 279.98828125 85 c 0
 366.98828125 85 428.862304688 141 449.844726562 260 c 1
EndSplineSet
EndChar

StartChar: S
Encoding: 83 83 21
Width: 625
VWidth: 0
Flags: HMW
AnchorPoint: "ced" 315 0 basechar 0
AnchorPoint: "dot" 469.009 760 basechar 0
LayerCount: 2
Fore
SplineSet
494.383789062 195 m 5
 599.383789062 195 l 1
 576.637695312 66 475.236328125 -10 326.236328125 -10 c 0
 197.236328125 -10 121.874023438 56 69.9248046875 113 c 1
 142.501953125 190 l 5
 182.744140625 146 244.98828125 85 342.98828125 85 c 4
 425.98828125 85 483.803710938 135 494.383789062 195 c 5
287.395507812 524 m 1
 181.513671875 519 l 1
 201.0859375 630 321.192382812 710 440.192382812 710 c 0
 539.192382812 710 614.844726562 674 657.67578125 622 c 1
 587.803710938 549 l 1
 550.561523438 593 491.44140625 615 433.44140625 615 c 0
 345.44140625 615 295.682617188 571 287.395507812 524 c 1
403.17578125 415 m 0
 525.715820312 393.220703125 622.659179688 327 599.383789062 195 c 1
 494.383789062 195 l 1
 505.139648438 256 471.84765625 301.458007812 375.54296875 315 c 0
 255.110351562 331.934570312 160.883789062 402 181.513671875 519 c 1
 287.395507812 524 l 1
 277.697265625 469 308.116210938 431.895507812 403.17578125 415 c 0
EndSplineSet
EndChar

StartChar: M
Encoding: 77 77 22
Width: 932
VWidth: 0
Flags: HMW
AnchorPoint: "ced" 790 0 basechar 0
AnchorPoint: "dot" 604.009 760 basechar 0
LayerCount: 2
Fore
SplineSet
512.922851562 130 m 1
 464.922851562 130 l 1
 482.555664062 230 l 5
 530.555664062 230 l 5
 512.922851562 130 l 1
844.849609375 640 m 1
 865.428710938 700 l 1
 965.428710938 700 l 1
 961.90234375 680 l 1
 844.849609375 640 l 1
939.849609375 640 m 1
 512.922851562 130 l 1
 482.555664062 230 l 5
 865.428710938 700 l 1
 939.849609375 640 l 1
961.90234375 680 m 1
 842 0 l 1
 732 0 l 1
 844.849609375 640 l 1
 961.90234375 680 l 1
312.849609375 640 m 1
 209.90234375 680 l 1
 213.428710938 700 l 1
 313.428710938 700 l 1
 312.849609375 640 l 1
217.849609375 640 m 1
 313.428710938 700 l 1
 530.555664062 230 l 5
 464.922851562 130 l 1
 217.849609375 640 l 1
209.90234375 680 m 1
 312.849609375 640 l 1
 200 0 l 1
 90 0 l 1
 209.90234375 680 l 1
EndSplineSet
EndChar

StartChar: Y
Encoding: 89 89 23
Width: 680
VWidth: 0
Flags: HMW
AnchorPoint: "ced" 345 0 basechar 0
AnchorPoint: "dot" 471.009 760 basechar 0
LayerCount: 2
Fore
SplineSet
337.016601562 295 m 1
 447.016601562 295 l 1
 395 0 l 1
 285 0 l 1
 337.016601562 295 l 1
143.428710938 700 m 1
 263.428710938 700 l 1
 447.016601562 295 l 1
 363.262695312 217 l 1
 143.428710938 700 l 1
663.428710938 700 m 1
 783.428710938 700 l 1
 393.262695312 217 l 1
 337.016601562 295 l 1
 663.428710938 700 l 1
EndSplineSet
EndChar

StartChar: W
Encoding: 87 87 24
Width: 1065
VWidth: 0
Flags: HMW
AnchorPoint: "ced" 750 0 basechar 0
AnchorPoint: "dot" 664.009 760 basechar 0
LayerCount: 2
Fore
SplineSet
593.428710938 700 m 1
 718.428710938 700 l 1
 692.666015625 690 l 1
 615.666015625 690 l 1
 593.428710938 700 l 1
810 0 m 1
 710 0 l 1
 711.763671875 10 l 1
 811.763671875 10 l 1
 810 0 l 1
718.428710938 700 m 1
 811.763671875 10 l 1
 710 0 l 1
 615.666015625 690 l 1
 718.428710938 700 l 1
810 0 m 1
 711.763671875 10 l 1
 1053.42871094 700 l 1
 1163.42871094 700 l 1
 810 0 l 1
355 0 m 1
 255 0 l 1
 256.763671875 10 l 1
 356.763671875 10 l 1
 355 0 l 1
258.428710938 700 m 1
 356.763671875 10 l 1
 255 0 l 1
 148.428710938 700 l 1
 258.428710938 700 l 1
355 0 m 1
 256.763671875 10 l 1
 593.428710938 700 l 1
 692.666015625 690 l 1
 355 0 l 1
EndSplineSet
EndChar

StartChar: N
Encoding: 78 78 25
Width: 790
VWidth: 0
Flags: HMW
AnchorPoint: "ced" 650 0 basechar 0
AnchorPoint: "dot" 534.009 760 basechar 0
LayerCount: 2
Fore
SplineSet
700 0 m 1
 600 0 l 1
 604.231445312 24 l 1
 702.46875 14 l 1
 700 0 l 1
313.428710938 700 m 1
 309.90234375 680 l 1
 209.90234375 680 l 1
 213.428710938 700 l 1
 313.428710938 700 l 1
206.375976562 660 m 5
 313.428710938 700 l 1
 707.052734375 40 l 1
 600 0 l 1
 206.375976562 660 l 5
713.428710938 700 m 1
 823.428710938 700 l 1
 700 0 l 1
 593.526367188 20 l 1
 713.428710938 700 l 1
213.428710938 700 m 1
 319.90234375 680 l 1
 200 0 l 1
 90 0 l 1
 213.428710938 700 l 1
EndSplineSet
EndChar

StartChar: X
Encoding: 88 88 26
Width: 750
VWidth: 0
Flags: HMW
AnchorPoint: "ced" 635 0 basechar 0
AnchorPoint: "dot" 508.009 760 basechar 0
LayerCount: 2
Fore
SplineSet
178.428710938 700 m 1
 303.428710938 700 l 1
 715 0 l 1
 590 0 l 1
 178.428710938 700 l 1
693.428710938 700 m 1
 818.428710938 700 l 1
 160 0 l 1
 35 0 l 1
 693.428710938 700 l 1
EndSplineSet
EndChar

StartChar: Z
Encoding: 90 90 27
Width: 680
VWidth: 0
Flags: HMW
AnchorPoint: "ced" 495 0 basechar 0
AnchorPoint: "dot" 469.009 760 basechar 0
LayerCount: 2
Fore
SplineSet
702.559570312 610 m 1
 692.559570312 610 l 1
 708.428710938 700 l 1
 718.428710938 700 l 1
 702.559570312 610 l 1
80.869140625 90 m 1
 90.869140625 90 l 1
 75 0 l 1
 65 0 l 1
 80.869140625 90 l 1
208.428710938 700 m 1
 708.428710938 700 l 1
 690.795898438 600 l 1
 190.795898438 600 l 1
 208.428710938 700 l 1
92.6328125 100 m 1
 632.6328125 100 l 1
 615 0 l 1
 75 0 l 1
 92.6328125 100 l 1
582.559570312 610 m 5
 702.559570312 610 l 1
 200.869140625 90 l 1
 80.869140625 90 l 1
 582.559570312 610 l 5
EndSplineSet
EndChar

StartChar: l
Encoding: 108 108 28
Width: 265
VWidth: 0
Flags: HMW
AnchorPoint: "ced" 133 0 basechar 0
AnchorPoint: "dot" 272.827 793 basechar 0
LayerCount: 2
Fore
SplineSet
208.71875 730 m 1
 313.71875 730 l 1
 185 0 l 1
 80 0 l 1
 208.71875 730 l 1
EndSplineSet
EndChar

StartChar: b
Encoding: 98 98 29
Width: 655
VWidth: 0
Flags: HMW
AnchorPoint: "ced" 356 0 basechar 0
AnchorPoint: "dot" 478.668 673 basechar 0
LayerCount: 2
Fore
SplineSet
235.844726562 260 m 0
 216.625 151 272.98828125 85 359.98828125 85 c 0
 446.98828125 85 521.625 151 540.844726562 260 c 0
 560.064453125 369 508.702148438 435 421.702148438 435 c 0
 334.702148438 435 255.064453125 369 235.844726562 260 c 0
200.844726562 260 m 0
 227.118164062 409 299.453125 530 458.453125 530 c 4
 577.453125 530 673.880859375 419 645.844726562 260 c 0
 617.80859375 101 482.236328125 -10 363.236328125 -10 c 4
 214.236328125 -10 174.572265625 111 200.844726562 260 c 0
213.71875 730 m 1
 318.71875 730 l 1
 190 0 l 1
 85 0 l 1
 213.71875 730 l 1
EndSplineSet
EndChar

StartChar: c
Encoding: 99 99 30
Width: 573
VWidth: 0
Flags: HMW
AnchorPoint: "ced" 325 0 basechar 0
AnchorPoint: "dot" 443.668 673 basechar 0
LayerCount: 2
Fore
SplineSet
205.844726562 260 m 4
 188.388671875 161 242.98828125 85 339.98828125 85 c 4
 398.98828125 85 457.572265625 111 497.331054688 155 c 5
 549.221679688 92 l 5
 490.9375 28 410.236328125 -10 323.236328125 -10 c 4
 174.236328125 -10 74.572265625 111 100.844726562 260 c 4
 127.118164062 409 269.453125 530 418.453125 530 c 4
 505.453125 530 571.576171875 491 607.467773438 428 c 5
 534.359375 365 l 5
 510.118164062 409 460.702148438 435 401.702148438 435 c 4
 304.702148438 435 223.301757812 359 205.844726562 260 c 4
EndSplineSet
EndChar

StartChar: d
Encoding: 100 100 31
Width: 655
VWidth: 0
Flags: HMW
AnchorPoint: "ced" 300 0 basechar 0
AnchorPoint: "dot" 413.668 673 basechar 0
LayerCount: 2
Fore
SplineSet
510.844726562 260 m 0
 530.064453125 369 473.702148438 435 386.702148438 435 c 0
 299.702148438 435 225.064453125 369 205.844726562 260 c 4
 186.625 151 237.98828125 85 324.98828125 85 c 0
 411.98828125 85 491.625 151 510.844726562 260 c 0
545.844726562 260 m 0
 519.572265625 111 447.236328125 -10 288.236328125 -10 c 0
 169.236328125 -10 72.80859375 101 100.844726562 260 c 0
 128.880859375 419 264.453125 530 383.453125 530 c 0
 542.453125 530 572.118164062 409 545.844726562 260 c 0
698.71875 730 m 1
 570 0 l 1
 465 0 l 1
 593.71875 730 l 1
 698.71875 730 l 1
EndSplineSet
EndChar

StartChar: k
Encoding: 107 107 32
Width: 615
VWidth: 0
Flags: HMW
AnchorPoint: "ced" 535 0 basechar 0
AnchorPoint: "dot" 453.668 673 basechar 0
LayerCount: 2
Fore
SplineSet
286.311523438 291 m 1
 394.837890625 311 l 1
 600 0 l 1
 482 0 l 1
 286.311523438 291 l 1
545.690429688 520 m 1
 671.690429688 520 l 1
 199.395507812 110 l 1
 127.154296875 154 l 1
 545.690429688 520 l 1
203.71875 730 m 1
 308.71875 730 l 1
 180 0 l 1
 75 0 l 1
 203.71875 730 l 1
EndSplineSet
EndChar

StartChar: e
Encoding: 101 101 33
Width: 615
VWidth: 0
Flags: HMW
AnchorPoint: "ced" 320 0 basechar 0
AnchorPoint: "dot" 428.668 673 basechar 0
LayerCount: 2
Fore
SplineSet
610.844726562 260 m 1
 605.555664062 230 l 1
 500.555664062 230 l 1
 505.844726562 260 l 1
 610.844726562 260 l 1
500.555664062 230 m 1
 174.555664062 230 l 1
 188.1328125 307 l 5
 514.1328125 307 l 5
 500.555664062 230 l 1
505.844726562 260 m 1
 525.064453125 369 483.702148438 435 386.702148438 435 c 0
 289.702148438 435 225.064453125 369 205.844726562 260 c 1
 100.844726562 260 l 1
 128.880859375 419 264.453125 530 403.453125 530 c 0
 542.453125 530 638.880859375 419 610.844726562 260 c 1
 505.844726562 260 l 1
100.844726562 260 m 1
 205.844726562 260 l 1
 186.625 151 237.98828125 85 334.98828125 85 c 0
 398.98828125 85 455.04296875 108 500.68359375 157 c 1
 554.221679688 92 l 1
 495.9375 28 405.236328125 -10 318.236328125 -10 c 0
 169.236328125 -10 72.80859375 101 100.844726562 260 c 1
EndSplineSet
EndChar

StartChar: p
Encoding: 112 112 34
Width: 655
VWidth: 0
Flags: HMW
AnchorPoint: "ced" 355 0 basechar 0
AnchorPoint: "dot" 478.668 673 basechar 0
LayerCount: 2
Fore
SplineSet
235.844726562 260 m 0
 216.625 151 272.98828125 85 359.98828125 85 c 0
 446.98828125 85 521.625 151 540.844726562 260 c 0
 560.064453125 369 508.702148438 435 421.702148438 435 c 0
 334.702148438 435 255.064453125 369 235.844726562 260 c 0
200.844726562 260 m 0
 227.118164062 409 299.453125 530 458.453125 530 c 4
 577.453125 530 673.880859375 419 645.844726562 260 c 0
 617.80859375 101 482.236328125 -10 363.236328125 -10 c 4
 204.236328125 -10 174.572265625 111 200.844726562 260 c 0
49.734375 -200 m 1
 176.690429688 520 l 1
 281.690429688 520 l 1
 154.734375 -200 l 1
 49.734375 -200 l 1
EndSplineSet
EndChar

StartChar: q
Encoding: 113 113 35
Width: 655
VWidth: 0
Flags: HMW
AnchorPoint: "ced" 300 0 basechar 0
AnchorPoint: "dot" 413.668 673 basechar 0
LayerCount: 2
Fore
SplineSet
510.844726562 260 m 0
 530.064453125 369 473.702148438 435 386.702148438 435 c 0
 299.702148438 435 225.064453125 369 205.844726562 260 c 0
 186.625 151 237.98828125 85 324.98828125 85 c 0
 411.98828125 85 491.625 151 510.844726562 260 c 0
545.844726562 260 m 0
 519.572265625 111 447.236328125 -10 298.236328125 -10 c 0
 169.236328125 -10 72.80859375 101 100.844726562 260 c 0
 128.880859375 419 264.453125 530 393.453125 530 c 0
 542.453125 530 572.118164062 409 545.844726562 260 c 0
534.734375 -200 m 1
 429.734375 -200 l 1
 556.690429688 520 l 1
 661.690429688 520 l 1
 534.734375 -200 l 1
EndSplineSet
EndChar

StartChar: h
Encoding: 104 104 36
Width: 635
VWidth: 0
Flags: HMW
AnchorPoint: "ced" 500 0 basechar 0
AnchorPoint: "dot" 468.668 673 basechar 0
LayerCount: 2
Fore
SplineSet
607.8984375 300 m 1
 555 0 l 1
 450 0 l 1
 502.8984375 300 l 1
 607.8984375 300 l 1
213.71875 730 m 1
 318.71875 730 l 1
 190 0 l 1
 85 0 l 1
 213.71875 730 l 1
502.8984375 300 m 1
 516.828125 379 506.702148438 435 406.702148438 435 c 0
 317.702148438 435 257.00390625 380 239.37109375 280 c 1
 204.37109375 280 l 1
 228.880859375 419 304.453125 530 443.453125 530 c 0
 572.453125 530 630.64453125 429 607.8984375 300 c 1
 502.8984375 300 l 1
EndSplineSet
EndChar

StartChar: n
Encoding: 110 110 37
Width: 635
VWidth: 0
Flags: HMW
AnchorPoint: "ced" 520 0 basechar 0
AnchorPoint: "dot" 448.668 673 basechar 0
LayerCount: 2
Fore
SplineSet
607.8984375 300 m 5
 555 0 l 5
 450 0 l 5
 502.8984375 300 l 5
 607.8984375 300 l 5
176.690429688 520 m 5
 281.690429688 520 l 5
 190 0 l 5
 85 0 l 5
 176.690429688 520 l 5
502.8984375 300 m 5
 517.00390625 380 506.702148438 435 406.702148438 435 c 4
 318.702148438 435 257.00390625 380 239.37109375 280 c 5
 204.37109375 280 l 5
 228.880859375 419 304.453125 530 453.453125 530 c 4
 572.453125 530 630.64453125 429 607.8984375 300 c 5
 502.8984375 300 l 5
EndSplineSet
EndChar

StartChar: m
Encoding: 109 109 38
Width: 900
VWidth: 0
Flags: HMW
AnchorPoint: "ced" 785 0 basechar 0
AnchorPoint: "dot" 568.668 673 basechar 0
LayerCount: 2
Fore
SplineSet
887.8984375 300 m 1
 835 0 l 1
 730 0 l 1
 782.8984375 300 l 1
 887.8984375 300 l 1
782.8984375 300 m 1
 797.00390625 380 787.583984375 440 702.583984375 440 c 0
 629.583984375 440 574.00390625 380 556.37109375 280 c 1
 521.37109375 280 l 1
 545.880859375 419 604.453125 530 748.453125 530 c 0
 872.453125 530 910.64453125 429 887.8984375 300 c 1
 782.8984375 300 l 1
559.8984375 300 m 1
 507 0 l 1
 403 0 l 1
 455.8984375 300 l 1
 559.8984375 300 l 1
166.690429688 520 m 1
 271.690429688 520 l 1
 180 0 l 1
 75 0 l 1
 166.690429688 520 l 1
455.8984375 300 m 1
 470.00390625 380 462.583984375 440 377.583984375 440 c 0
 304.583984375 440 247.00390625 380 229.37109375 280 c 1
 194.37109375 280 l 1
 218.880859375 419 279.453125 530 423.453125 530 c 4
 557.453125 530 582.64453125 429 559.8984375 300 c 1
 455.8984375 300 l 1
EndSplineSet
EndChar

StartChar: r
Encoding: 114 114 39
Width: 410
VWidth: 0
Flags: HMW
AnchorPoint: "ced" 150 0 basechar 0
AnchorPoint: "dot" 338.668 673 basechar 0
LayerCount: 2
Fore
SplineSet
176.690429688 520 m 1
 281.690429688 520 l 1
 190 0 l 1
 85 0 l 1
 176.690429688 520 l 1
454.939453125 425 m 5
 434.939453125 425 l 6
 320.939453125 425 257.00390625 380 237.608398438 270 c 1
 202.608398438 270 l 1
 227.118164062 409 302.690429688 520 471.690429688 520 c 1
 454.939453125 425 l 5
EndSplineSet
EndChar

StartChar: u
Encoding: 117 117 40
Width: 635
VWidth: 0
Flags: HMW
AnchorPoint: "ced" 285 0 basechar 0
AnchorPoint: "dot" 423.668 673 basechar 0
LayerCount: 2
Fore
SplineSet
118.791992188 220 m 1
 171.690429688 520 l 1
 276.690429688 520 l 1
 223.791992188 220 l 1
 118.791992188 220 l 1
550 0 m 1
 445 0 l 1
 536.690429688 520 l 1
 641.690429688 520 l 1
 550 0 l 1
223.791992188 220 m 1
 209.685546875 140 219.98828125 85 319.98828125 85 c 0
 407.98828125 85 469.685546875 140 487.318359375 240 c 1
 522.318359375 240 l 1
 497.80859375 101 422.236328125 -10 273.236328125 -10 c 0
 154.236328125 -10 96.0458984375 91 118.791992188 220 c 1
 223.791992188 220 l 1
EndSplineSet
EndChar

StartChar: g
Encoding: 103 103 41
Width: 655
VWidth: 0
Flags: HMW
AnchorPoint: "dot" 418.668 673 basechar 0
LayerCount: 2
Fore
SplineSet
300.958984375 -125 m 5
 284.208007812 -220 l 1
 147.208007812 -220 73.671875 -172 37.95703125 -108 c 1
 115.594726562 -42 l 5
 142.954101562 -91 197.958984375 -125 300.958984375 -125 c 5
573.526367188 20 m 1
 468.526367188 20 l 1
 556.690429688 520 l 1
 661.690429688 520 l 1
 573.526367188 20 l 1
545.844726562 260 m 0
 519.572265625 111 447.236328125 -10 298.236328125 -10 c 0
 169.236328125 -10 72.80859375 101 100.844726562 260 c 0
 128.880859375 419 264.453125 530 393.453125 530 c 0
 542.453125 530 572.118164062 409 545.844726562 260 c 0
510.844726562 260 m 4
 530.064453125 369 473.702148438 435 386.702148438 435 c 4
 299.702148438 435 225.064453125 369 205.844726562 260 c 0
 186.625 151 237.98828125 85 324.98828125 85 c 4
 411.98828125 85 491.625 151 510.844726562 260 c 4
468.526367188 20 m 1
 573.526367188 20 l 1
 549.016601562 -119 413.208007812 -220 284.208007812 -220 c 1
 300.958984375 -125 l 1
 377.958984375 -125 451.0703125 -79 468.526367188 20 c 1
EndSplineSet
EndChar

StartChar: i
Encoding: 105 105 42
Width: 255
VWidth: 0
Flags: HMW
AnchorPoint: "ced" 125 0 basechar 0
LayerCount: 2
Fore
SplineSet
179.254882812 682 m 4
 185.955078125 720 221.245117188 750 259.245117188 750 c 4
 297.245117188 750 321.955078125 720 315.254882812 682 c 4
 308.5546875 644 273.264648438 614 235.264648438 614 c 4
 197.264648438 614 172.5546875 644 179.254882812 682 c 4
166.690429688 520 m 1
 271.690429688 520 l 1
 180 0 l 1
 75 0 l 1
 166.690429688 520 l 1
EndSplineSet
EndChar

StartChar: t
Encoding: 116 116 43
Width: 430
VWidth: 0
Flags: HMW
AnchorPoint: "ced" 267 0 basechar 0
AnchorPoint: "dot" 423.668 673 basechar 0
LayerCount: 2
Fore
SplineSet
131.690429688 520 m 1
 471.690429688 520 l 1
 454.939453125 425 l 1
 114.939453125 425 l 1
 131.690429688 520 l 1
239.685546875 140 m 1
 134.685546875 140 l 1
 228.66796875 673 l 1
 333.66796875 673 l 1
 239.685546875 140 l 1
288.98828125 85 m 1
 322.98828125 85 349.927734375 96 370.27734375 115 c 5
 409.405273438 42 l 1
 377.291992188 13 328.236328125 -10 266.236328125 -10 c 1
 288.98828125 85 l 1
239.685546875 140 m 1
 234.395507812 110 250.98828125 85 288.98828125 85 c 1
 266.236328125 -10 l 1
 177.236328125 -10 120.755859375 61 134.685546875 140 c 1
 239.685546875 140 l 1
EndSplineSet
EndChar

StartChar: a
Encoding: 97 97 44
Width: 580
VWidth: 0
Flags: HMW
AnchorPoint: "ced" 440 0 basechar 0
AnchorPoint: "ring" 398.668 673 basechar 0
AnchorPoint: "dot" 398.668 673 basechar 0
LayerCount: 2
Fore
SplineSet
371.77734375 322 m 1
 511.77734375 322 l 1
 498.729492188 248 l 5
 388.729492188 248 l 5
 371.77734375 322 l 1
463.1875 330 m 1
 476.412109375 405 455.702148438 435 359.702148438 435 c 1
 382.453125 530 l 1
 525.453125 530 590.052734375 454 568.1875 330 c 1
 463.1875 330 l 1
359.702148438 435 m 1
 305.702148438 435 254.41015625 422 198.356445312 382 c 1
 154.346679688 450 l 1
 219.987304688 499 280.453125 530 382.453125 530 c 1
 359.702148438 435 l 1
463.1875 330 m 1
 568.1875 330 l 1
 510 0 l 1
 405 0 l 1
 463.1875 330 l 1
170.331054688 155 m 1
 160.103515625 97 205.224609375 75 278.224609375 75 c 0
 356.224609375 75 422.6328125 100 436.739257812 180 c 1
 471.739257812 180 l 1
 452.51953125 71 372.236328125 -10 233.236328125 -10 c 0
 134.236328125 -10 45.2294921875 41 66.2119140625 160 c 1
 170.331054688 155 l 1
371.77734375 322 m 1
 388.729492188 248 l 5
 279.729492188 248 183.555664062 230 170.331054688 155 c 1
 66.2119140625 160 l 1
 91.779296875 305 234.77734375 322 371.77734375 322 c 1
EndSplineSet
EndChar

StartChar: j
Encoding: 106 106 45
Width: 255
VWidth: 0
Flags: HMW
LayerCount: 2
Fore
SplineSet
179.254882812 682 m 4
 185.955078125 720 221.245117188 750 259.245117188 750 c 4
 297.245117188 750 321.955078125 720 315.254882812 682 c 4
 308.5546875 644 273.264648438 614 235.264648438 614 c 4
 197.264648438 614 172.5546875 644 179.254882812 682 c 4
166.690429688 520 m 1
 271.690429688 520 l 1
 169.419921875 -60 l 1
 66.18359375 -50 l 1
 166.690429688 520 l 1
1.72265625 -115 m 1
 -9.0283203125 -210 l 1
 -66.0283203125 -210 -112.854492188 -192 -133.859375 -158 c 1
 -71.3408203125 -87 l 1
 -57.6904296875 -106 -31.27734375 -115 1.72265625 -115 c 1
66.18359375 -50 m 1
 169.419921875 -60 l 1
 155.490234375 -139 79.9716796875 -210 -9.0283203125 -210 c 1
 1.72265625 -115 l 1
 38.72265625 -115 59.130859375 -90 66.18359375 -50 c 1
EndSplineSet
EndChar

StartChar: s
Encoding: 115 115 46
Width: 520
VWidth: 0
Flags: HMW
AnchorPoint: "ced" 265 0 basechar 0
AnchorPoint: "dot" 383.668 673 basechar 0
LayerCount: 2
Fore
SplineSet
395.567382812 145 m 1
 500.919921875 147 l 1
 485.2265625 58 412.236328125 -10 273.236328125 -10 c 0
 164.236328125 -10 106.524414062 37 63.337890625 104 c 1
 142.623046875 168 l 1
 179.806640625 118 221.98828125 85 289.98828125 85 c 0
 342.98828125 85 387.6328125 100 395.567382812 145 c 1
242.533203125 383 m 1
 137.356445312 382 l 1
 150.7578125 458 239.453125 530 348.453125 530 c 0
 457.453125 530 503.458007812 496 536.994140625 448 c 1
 463.00390625 380 l 1
 436.646484375 412 399.702148438 435 331.702148438 435 c 0
 273.702148438 435 246.412109375 405 242.533203125 383 c 1
335.895507812 317 m 0
 449.545898438 298 520.31640625 257 500.919921875 147 c 1
 395.567382812 145 l 5
 401.385742188 178 395.7578125 210.76171875 289.849609375 226 c 0
 188.932617188 240.520507812 118.313476562 274 137.356445312 382 c 5
 242.533203125 383 l 1
 237.243164062 353 240.973632812 332.869140625 335.895507812 317 c 0
EndSplineSet
EndChar

StartChar: v
Encoding: 118 118 47
Width: 590
VWidth: 0
Flags: HMW
AnchorPoint: "ced" 297 0 basechar 0
AnchorPoint: "dot" 401.668 673 basechar 0
LayerCount: 2
Fore
SplineSet
345 0 m 1
 245 0 l 1
 245.881835938 5 l 1
 345.881835938 5 l 1
 345 0 l 1
245.881835938 5 m 1
 551.690429688 520 l 1
 656.690429688 520 l 1
 345 0 l 1
 245.881835938 5 l 1
116.690429688 520 m 1
 221.690429688 520 l 1
 345.881835938 5 l 1
 245 0 l 1
 116.690429688 520 l 1
EndSplineSet
EndChar

StartChar: f
Encoding: 102 102 48
Width: 375
VWidth: 0
Flags: HMW
AnchorPoint: "ced" 155 0 basechar 0
LayerCount: 2
Fore
SplineSet
126.690429688 520 m 1
 449.690429688 520 l 1
 432.939453125 425 l 1
 109.939453125 425 l 1
 126.690429688 520 l 1
314.033203125 590 m 1
 210 0 l 1
 105 0 l 1
 209.033203125 590 l 1
 314.033203125 590 l 1
381.73046875 645 m 5
 392.482421875 740 l 1
 454.482421875 740 495.602539062 718 516.3125 688 c 1
 453.793945312 617 l 1
 438.497070312 638 415.73046875 645 381.73046875 645 c 5
314.033203125 590 m 5
 209.033203125 590 l 1
 222.962890625 669 303.482421875 740 392.482421875 740 c 1
 381.73046875 645 l 5
 346.73046875 645 319.146484375 619 314.033203125 590 c 5
EndSplineSet
Substitution2: "fi-1" fi
EndChar

StartChar: y
Encoding: 121 121 49
Width: 579
VWidth: 0
Flags: HMW
AnchorPoint: "dot" 418.668 673 basechar 0
LayerCount: 2
Fore
SplineSet
125.690429688 520 m 1
 235.690429688 520 l 1
 369.881835938 5 l 1
 264 0 l 1
 125.690429688 520 l 1
147.72265625 -115 m 1
 136.971679688 -210 l 1
 79.9716796875 -210 34.5556640625 -184 13.55078125 -150 c 1
 78.4228515625 -77 l 5
 92.072265625 -96 113.72265625 -115 147.72265625 -115 c 1
228.419921875 -60 m 2
 545.690429688 520 l 1
 650.690429688 520 l 1
 333.419921875 -60 l 2
 289.900390625 -139.55859375 225.971679688 -210 136.971679688 -210 c 1
 147.72265625 -115 l 1
 175.72265625 -115 206.51171875 -100.05078125 228.419921875 -60 c 2
EndSplineSet
EndChar

StartChar: w
Encoding: 119 119 50
Width: 795
VWidth: 0
Flags: HMW
AnchorPoint: "ced" 565 0 basechar 0
AnchorPoint: "dot" 516.668 673 basechar 0
LayerCount: 2
Fore
SplineSet
446.690429688 520 m 1
 531.690429688 520 l 1
 522.874023438 470 l 1
 437.874023438 470 l 1
 446.690429688 520 l 1
625 0 m 1
 530 0 l 1
 530.881835938 5 l 5
 629.408203125 25 l 1
 625 0 l 1
540.881835938 5 m 5
 751.690429688 520 l 1
 856.690429688 520 l 1
 625 0 l 1
 540.881835938 5 l 5
447.874023438 470 m 1
 531.690429688 520 l 1
 619.408203125 25 l 1
 530 0 l 1
 447.874023438 470 l 1
265 0 m 1
 170 0 l 1
 174.408203125 25 l 1
 265.881835938 5 l 1
 265 0 l 1
184.408203125 25 m 1
 446.690429688 520 l 1
 512.874023438 470 l 1
 265 0 l 1
 184.408203125 25 l 1
121.690429688 520 m 1
 226.690429688 520 l 1
 255.881835938 5 l 1
 170 0 l 1
 121.690429688 520 l 1
EndSplineSet
EndChar

StartChar: x
Encoding: 120 120 51
Width: 615
VWidth: 0
Flags: HMW
AnchorPoint: "ced" 515 0 basechar 0
AnchorPoint: "dot" 413.668 673 basechar 0
LayerCount: 2
Fore
SplineSet
30 0 m 1
 536.690429688 520 l 1
 656.690429688 520 l 1
 150 0 l 1
 30 0 l 1
141.690429688 520 m 1
 261.690429688 520 l 1
 585 0 l 1
 465 0 l 1
 141.690429688 520 l 1
EndSplineSet
EndChar

StartChar: z
Encoding: 122 122 52
Width: 570
VWidth: 0
Flags: HMW
AnchorPoint: "ced" 445 0 basechar 0
AnchorPoint: "dot" 408.668 673 basechar 0
LayerCount: 2
Fore
SplineSet
69.98828125 85 m 1
 89.98828125 85 l 1
 75 0 l 1
 55 0 l 1
 69.98828125 85 l 1
91.7509765625 95 m 1
 531.750976562 95 l 1
 515 0 l 1
 75 0 l 1
 91.7509765625 95 l 1
576.690429688 520 m 1
 596.690429688 520 l 1
 581.702148438 435 l 1
 561.702148438 435 l 1
 576.690429688 520 l 1
166.690429688 520 m 1
 576.690429688 520 l 1
 559.939453125 425 l 1
 149.939453125 425 l 1
 166.690429688 520 l 1
461.702148438 435 m 1
 581.702148438 435 l 1
 189.98828125 85 l 1
 69.98828125 85 l 1
 461.702148438 435 l 1
EndSplineSet
EndChar

StartChar: zero
Encoding: 48 48 53
Width: 600
VWidth: 0
Flags: HMW
LayerCount: 2
Fore
SplineSet
186.71484375 350 m 0
 160.793945312 203 193.869140625 90 315.869140625 90 c 0
 437.869140625 90 510.793945312 203 536.71484375 350 c 0
 562.634765625 497 529.559570312 610 407.559570312 610 c 0
 285.559570312 610 212.634765625 497 186.71484375 350 c 0
76.71484375 350 m 0
 111.803710938 549 250.192382812 710 425.192382812 710 c 0
 600.192382812 710 681.803710938 549 646.71484375 350 c 0
 611.625 151 473.236328125 -10 298.236328125 -10 c 0
 123.236328125 -10 41.625 151 76.71484375 350 c 0
EndSplineSet
EndChar

StartChar: one
Encoding: 49 49 54
Width: 600
VWidth: 0
Flags: HMW
LayerCount: 2
Fore
SplineSet
513.428710938 700 m 1
 509.197265625 676 l 1
 409.197265625 676 l 1
 413.428710938 700 l 1
 513.428710938 700 l 1
413.428710938 700 m 1
 477.262695312 631 l 5
 230.813476562 481 l 5
 198.743164062 560 l 1
 413.428710938 700 l 1
401.666015625 690 m 1
 513.428710938 700 l 1
 390 0 l 1
 280 0 l 1
 401.666015625 690 l 1
EndSplineSet
EndChar

StartChar: six
Encoding: 54 54 55
Width: 600
VWidth: 0
Flags: HMW
LayerCount: 2
Fore
SplineSet
188.791992188 220 m 1
 153.791992188 220 l 1
 176.538085938 349 279.465820312 445 408.465820312 445 c 1
 363.477539062 360 l 1
 265.477539062 360 202.8984375 300 188.791992188 220 c 1
188.791992188 220 m 0
 174.685546875 140 216.106445312 80 314.106445312 80 c 0
 412.106445312 80 474.685546875 140 488.791992188 220 c 0
 502.8984375 300 461.477539062 360 363.477539062 360 c 1
 408.465820312 445 l 1
 537.465820312 445 611.538085938 349 588.791992188 220 c 0
 566.045898438 91 447.236328125 -10 298.236328125 -10 c 0
 149.236328125 -10 66.0458984375 91 88.7919921875 220 c 0
 98.8896484375 277.265625 131.625 327.206054688 174.475585938 377 c 2
 452.428710938 700 l 1
 572.428710938 700 l 5
 259.560546875 351.75390625 l 5
 245.991210938 344.909179688 l 1
 202.344726562 315.858398438 197.813476562 271.161132812 188.791992188 220 c 0
EndSplineSet
EndChar

StartChar: period
Encoding: 46 46 56
Width: 230
VWidth: 0
Flags: HMW
LayerCount: 2
Fore
SplineSet
40 66 m 4
 40 108 74 142 115 142 c 4
 156 142 190 108 190 66 c 4
 190 24 156 -10 115 -10 c 4
 74 -10 40 24 40 66 c 4
EndSplineSet
EndChar

StartChar: comma
Encoding: 44 44 58
Width: 254
VWidth: 0
Flags: HMW
LayerCount: 2
Fore
SplineSet
81.6376953125 66 m 0
 89.04296875 108 129.038085938 142 170.038085938 142 c 0
 221.038085938 142 244.04296875 108 236.637695312 66 c 0
 234.114257812 51.6884765625 218.865234375 30.2109375 207.998046875 17 c 2
 87.0771484375 -130 l 1
 17.0771484375 -130 l 1
 114.401367188 2.4931640625 l 5
 92.197265625 9.0791015625 76.9541015625 39.4404296875 81.6376953125 66 c 0
EndSplineSet
EndChar

StartChar: two
Encoding: 50 50 60
Width: 600
VWidth: 0
Flags: HMW
LayerCount: 2
Fore
SplineSet
64.98828125 85 m 1
 84.98828125 85 l 1
 70 0 l 1
 50 0 l 1
 64.98828125 85 l 1
514.221679688 506 m 1
 524.625 565 485.44140625 615 408.44140625 615 c 0
 329.44140625 615 267.390625 558 217.754882812 475 c 1
 142.21875 523 l 1
 202.91015625 629 307.192382812 710 425.192382812 710 c 0
 554.192382812 710 638.44140625 615 617.458007812 496 c 5
 514.221679688 506 l 1
70 0 m 1
 86.7509765625 95 l 1
 566.750976562 95 l 1
 550 0 l 1
 70 0 l 1
428.2578125 251 m 2
 194.98828125 85 l 1
 64.98828125 85 l 1
 355.8984375 300 l 2
 470.702148438 384.846679688 499.939453125 425 514.221679688 506 c 1
 617.458007812 496 l 5
 599.825195312 396 551.744140625 338.875 428.2578125 251 c 2
EndSplineSet
EndChar

StartChar: three
Encoding: 51 51 62
Width: 600
VWidth: 0
Flags: HMW
LayerCount: 2
Fore
SplineSet
319.47265625 394 m 1
 506.47265625 394 611.185546875 347 584.736328125 197 c 0
 560.05078125 57 425.236328125 -10 298.236328125 -10 c 0
 208.236328125 -10 118.46875 14 67.4560546875 99 c 1
 143.565429688 162 l 1
 174.8671875 107 246.811523438 84 314.811523438 84 c 0
 397.811523438 84 465.806640625 118 479.736328125 197 c 4
 493.666015625 276 439.424804688 320 306.424804688 320 c 1
 319.47265625 394 l 1
181.1484375 602 m 1
 240.375976562 660 311.192382812 710 425.192382812 710 c 0
 559.192382812 710 630.91015625 629 613.453125 530 c 0
 592.470703125 411 483.951171875 340 309.951171875 340 c 1
 323.17578125 415 l 1
 443.17578125 415 496.462890625 462 506.690429688 520 c 0
 516.916992188 578 488.44140625 615 408.44140625 615 c 0
 335.44140625 615 284.50390625 587 236.040039062 539 c 1
 181.1484375 602 l 1
EndSplineSet
EndChar

StartChar: eight
Encoding: 56 56 63
Width: 600
VWidth: 0
Flags: HMW
LayerCount: 2
Fore
SplineSet
276.690429688 520 m 0
 266.462890625 462 303.17578125 415 373.17578125 415 c 0
 443.17578125 415 496.462890625 462 506.690429688 520 c 0
 516.916992188 578 478.44140625 615 408.44140625 615 c 0
 338.44140625 615 286.916992188 578 276.690429688 520 c 0
173.453125 530 m 0
 190.91015625 629 301.192382812 710 425.192382812 710 c 0
 549.192382812 710 630.91015625 629 613.453125 530 c 0
 592.470703125 411 485.71484375 350 361.71484375 350 c 0
 237.71484375 350 152.470703125 411 173.453125 530 c 0
82.9736328125 187 m 0
 107.659179688 327 230.709960938 384 367.709960938 384 c 0
 504.709960938 384 607.659179688 327 582.973632812 187 c 0
 561.813476562 67 435.236328125 -10 298.236328125 -10 c 0
 161.236328125 -10 61.8134765625 67 82.9736328125 187 c 0
189.736328125 197 m 0
 175.806640625 118 231.811523438 84 314.811523438 84 c 0
 397.811523438 84 465.806640625 118 479.736328125 197 c 0
 493.666015625 276 439.424804688 320 356.424804688 320 c 4
 273.424804688 320 203.666015625 276 189.736328125 197 c 0
EndSplineSet
EndChar

StartChar: four
Encoding: 52 52 64
Width: 600
VWidth: 0
Flags: HMW
LayerCount: 2
Fore
SplineSet
78.7919921875 220 m 1
 98.7919921875 220 l 1
 83.8037109375 135 l 1
 63.8037109375 135 l 1
 78.7919921875 220 l 1
100.555664062 230 m 1
 590.555664062 230 l 1
 573.803710938 135 l 1
 83.8037109375 135 l 1
 100.555664062 230 l 1
603.428710938 700 m 1
 599.197265625 676 l 1
 484.197265625 676 l 1
 488.428710938 700 l 1
 603.428710938 700 l 1
488.428710938 700 m 1
 556.19921875 659 l 5
 183.791992188 220 l 1
 78.7919921875 220 l 1
 488.428710938 700 l 1
494.90234375 680 m 1
 603.428710938 700 l 1
 480 0 l 1
 375 0 l 1
 494.90234375 680 l 1
EndSplineSet
EndChar

StartChar: five
Encoding: 53 53 65
Width: 600
VWidth: 0
Flags: HMW
LayerCount: 2
Fore
SplineSet
124.837890625 311 m 1
 141.008789062 346 l 1
 211.008789062 346 l 1
 214.837890625 311 l 1
 124.837890625 311 l 1
400.228515625 455 m 1
 527.228515625 455 613.477539062 360 588.791992188 220 c 0
 562.342773438 70 425.236328125 -10 298.236328125 -10 c 0
 208.236328125 -10 118.46875 14 67.4560546875 99 c 1
 149.446289062 167 l 1
 180.749023438 112 252.1640625 86 315.1640625 86 c 0
 388.1640625 86 468.098632812 131 483.791992188 220 c 0
 497.721679688 299 466.477539062 360 363.477539062 360 c 1
 400.228515625 455 l 1
124.837890625 311 m 1
 253.428710938 700 l 1
 348.428710938 700 l 1
 235.127929688 341 l 1
 124.837890625 311 l 1
253.428710938 700 m 1
 633.428710938 700 l 1
 616.677734375 605 l 1
 236.677734375 605 l 1
 253.428710938 700 l 1
363.477539062 360 m 1
 306.477539062 360 262.067382812 352 214.837890625 311 c 1
 174.837890625 311 l 1
 220.53125 400 261.228515625 455 400.228515625 455 c 1
 363.477539062 360 l 1
EndSplineSet
EndChar

StartChar: seven
Encoding: 55 55 66
Width: 600
VWidth: 0
Flags: HMW
LayerCount: 2
Fore
SplineSet
660.322265625 620 m 1
 261 0 l 5
 154 0 l 1
 553.322265625 620 l 1
 660.322265625 620 l 1
653.428710938 700 m 1
 674.428710938 700 l 1
 660.322265625 620 l 1
 639.322265625 620 l 1
 653.428710938 700 l 1
173.428710938 700 m 1
 653.428710938 700 l 1
 636.677734375 605 l 1
 156.677734375 605 l 1
 173.428710938 700 l 1
EndSplineSet
EndChar

StartChar: exclam
Encoding: 33 33 67
Width: 230
VWidth: 0
Flags: HMW
LayerCount: 2
Fore
SplineSet
142.400390625 490 m 1
 260.400390625 490 l 1
 191.08203125 250 l 1
 127.08203125 250 l 1
 142.400390625 490 l 1
184.71875 730 m 1
 302.71875 730 l 1
 260.400390625 490 l 1
 142.400390625 490 l 1
 184.71875 730 l 1
EndSplineSet
Refer: 56 46 N 1 0 0.176327 1 0 0 2
EndChar

StartChar: quotesingle
Encoding: 39 39 69
Width: 170
VWidth: 0
Flags: HMW
LayerCount: 2
Fore
SplineSet
139.020507812 675 m 0
 146.07421875 715 175.482421875 740 215.482421875 740 c 0
 255.482421875 740 276.07421875 715 269.020507812 675 c 4
 267.961914062 668.99609375 266.073242188 663.501953125 264.13671875 657.750976562 c 2
 191.63671875 480 l 1
 147.63671875 480 l 1
 137.822265625 657.750976562 l 6
 137.91015625 663.344726562 137.961914062 668.99609375 139.020507812 675 c 0
EndSplineSet
EndChar

StartChar: numbersign
Encoding: 35 35 70
Width: 810
VWidth: 0
Flags: HMW
LayerCount: 2
Fore
SplineSet
765.844726562 260 m 1
 749.09375 165 l 1
 79.09375 165 l 1
 95.8447265625 260 l 1
 765.844726562 260 l 1
854.334960938 535 m 1
 837.583984375 440 l 5
 167.583984375 440 l 5
 184.334960938 535 l 1
 854.334960938 535 l 1
678.428710938 700 m 1
 778.428710938 700 l 1
 535 0 l 1
 435 0 l 1
 678.428710938 700 l 1
398.428710938 700 m 1
 498.428710938 700 l 1
 255 0 l 1
 155 0 l 1
 398.428710938 700 l 1
EndSplineSet
EndChar

StartChar: percent
Encoding: 37 37 71
Width: 940
VWidth: 0
Flags: HMW
LayerCount: 2
Fore
SplineSet
651.739257812 180 m 0
 641.3359375 121 677.224609375 75 733.224609375 75 c 0
 789.224609375 75 841.3359375 121 851.739257812 180 c 0
 862.142578125 239 826.252929688 285 770.252929688 285 c 0
 714.252929688 285 662.142578125 239 651.739257812 180 c 0
216.979492188 550 m 0
 206.576171875 491 242.465820312 445 298.465820312 445 c 0
 354.465820312 445 406.576171875 491 416.979492188 550 c 0
 427.3828125 609 391.494140625 655 335.494140625 655 c 0
 279.494140625 655 227.3828125 609 216.979492188 550 c 0
126.979492188 550 m 0
 145.494140625 655 245.482421875 740 350.482421875 740 c 0
 455.482421875 740 525.494140625 655 506.979492188 550 c 0
 488.465820312 445 388.477539062 360 283.477539062 360 c 0
 178.477539062 360 108.465820312 445 126.979492188 550 c 0
561.739257812 180 m 0
 580.252929688 285 680.241210938 370 785.241210938 370 c 0
 890.241210938 370 960.252929688 285 941.739257812 180 c 0
 923.224609375 75 823.236328125 -10 718.236328125 -10 c 0
 613.236328125 -10 543.224609375 75 561.739257812 180 c 0
798.71875 730 m 1
 898.71875 730 l 1
 270 0 l 1
 170 0 l 1
 798.71875 730 l 1
EndSplineSet
EndChar

StartChar: dollar
Encoding: 36 36 72
Width: 600
VWidth: 0
Flags: HMW
LayerCount: 2
Fore
SplineSet
431 780 m 5
 501 780 l 5
 351 -80 l 1
 281 -80 l 1
 431 780 l 5
EndSplineSet
Refer: 21 83 N 1 0 0 1 -10 0 2
EndChar

StartChar: asterisk
Encoding: 42 42 73
Width: 324
VWidth: 0
Flags: HMW
LayerCount: 2
Fore
SplineSet
131.4609375 479 m 1
 110.629882812 531 l 1
 397.079101562 681 l 1
 417.91015625 629 l 1
 131.4609375 479 l 1
127.91015625 629 m 1
 167.079101562 681 l 1
 400.629882812 531 l 1
 361.4609375 479 l 1
 127.91015625 629 l 1
260.71875 730 m 1
 320.71875 730 l 1
 267.8203125 430 l 1
 207.8203125 430 l 1
 260.71875 730 l 1
EndSplineSet
EndChar

StartChar: slash
Encoding: 47 47 74
Width: 430
VWidth: 0
Flags: HMW
LayerCount: 2
Fore
SplineSet
497.53515625 780 m 1
 587.53515625 780 l 1
 55.8935546875 -80 l 5
 -34.1064453125 -80 l 1
 497.53515625 780 l 1
EndSplineSet
EndChar

StartChar: ampersand
Encoding: 38 38 75
Width: 715
VWidth: 0
Flags: HMW
LayerCount: 2
Fore
SplineSet
374.649414062 395 m 0
 455.106445312 415.8046875 509.63671875 480 518.453125 530 c 1
 618.453125 530 l 1
 601.702148438 435 492.271484375 367.01171875 395.833007812 345 c 0
 294.004882812 321.758789062 219.547851562 281 203.501953125 190 c 1
 103.501953125 190 l 1
 128.1875 330 263.966796875 366.379882812 374.649414062 395 c 0
340.216796875 540 m 1
 240.216796875 540 l 1
 259.436523438 649 351.192382812 710 460.192382812 710 c 0
 569.192382812 710 639.436523438 649 618.453125 530 c 1
 518.453125 530 l 1
 528.856445312 589 492.204101562 625 445.204101562 625 c 0
 398.204101562 625 349.73828125 594 340.216796875 540 c 1
352.311523438 291 m 2
 282.967773438 395.72265625 226.110351562 460 240.216796875 540 c 5
 340.216796875 540 l 1
 331.223632812 489 374.432617188 437.349609375 439.774414062 339 c 2
 665 0 l 1
 545 0 l 1
 352.311523438 291 l 2
621.366210938 314 m 1
 700.077148438 284 l 1
 640.27734375 115 487.236328125 -10 318.236328125 -10 c 0
 169.236328125 -10 82.51953125 71 103.501953125 190 c 1
 203.501953125 190 l 1
 193.098632812 131 247.98828125 85 344.98828125 85 c 0
 461.98828125 85 565.09375 165 621.366210938 314 c 1
EndSplineSet
EndChar

StartChar: parenleft
Encoding: 40 40 76
Width: 275
VWidth: 0
Flags: HMW
LayerCount: 2
Fore
SplineSet
317.245117188 750 m 1
 390.192382812 710 l 1
 184.346679688 450 119.106445312 80 233.260742188 -180 c 5
 146.208007812 -220 l 1
 0.869140625 90 62.583984375 440 317.245117188 750 c 1
EndSplineSet
EndChar

StartChar: hyphen
Encoding: 45 45 78
Width: 430
VWidth: 0
Flags: HMW
LayerCount: 2
Fore
SplineSet
125.833007812 345 m 5
 425.833007812 345 l 5
 409.08203125 250 l 1
 109.08203125 250 l 1
 125.833007812 345 l 5
EndSplineSet
EndChar

StartChar: plus
Encoding: 43 43 79
Width: 510
VWidth: 0
Flags: HMW
LayerCount: 2
Fore
SplineSet
408.856445312 589 m 5
 328.627929688 134 l 5
 228.627929688 134 l 1
 308.856445312 589 l 1
 408.856445312 589 l 5
102.118164062 409 m 1
 552.118164062 409 l 1
 535.366210938 314 l 1
 85.3662109375 314 l 1
 102.118164062 409 l 1
EndSplineSet
EndChar

StartChar: equal
Encoding: 61 61 80
Width: 510
VWidth: 0
Flags: HMW
LayerCount: 2
Fore
SplineSet
80.2529296875 285 m 1
 530.252929688 285 l 1
 513.501953125 190 l 1
 63.501953125 190 l 1
 80.2529296875 285 l 1
121.690429688 520 m 5
 571.690429688 520 l 5
 554.939453125 425 l 1
 104.939453125 425 l 1
 121.690429688 520 l 5
EndSplineSet
EndChar

StartChar: backslash
Encoding: 92 92 81
Width: 430
VWidth: 0
Flags: HMW
LayerCount: 2
Fore
SplineSet
207.53515625 780 m 1
 435.893554688 -80 l 1
 345.893554688 -80 l 5
 117.53515625 780 l 1
 207.53515625 780 l 1
EndSplineSet
EndChar

StartChar: less
Encoding: 60 60 82
Width: 510
VWidth: 0
Flags: HMW
LayerCount: 2
Fore
SplineSet
101.412109375 405 m 1
 517.91015625 215 l 1
 501.159179688 120 l 1
 84.6611328125 310 l 5
 101.412109375 405 l 1
101.412109375 405 m 1
 584.915039062 595 l 1
 568.163085938 500 l 1
 84.6611328125 310 l 5
 101.412109375 405 l 1
EndSplineSet
EndChar

StartChar: question
Encoding: 63 63 84
Width: 555
VWidth: 0
Flags: HMW
LayerCount: 2
Fore
SplineSet
408.700195312 452 m 0
 469.373046875 480.341796875 495.984375 516 503.038085938 556 c 1
 608.038085938 556 l 1
 591.287109375 461 530.737304688 411.75 445.946289062 374 c 0
 382.177734375 345.609375 363.364257812 331 349.08203125 250 c 1
 249.08203125 250 l 1
 255.53125 400 333.27734375 416.768554688 408.700195312 452 c 0
503.038085938 556 m 1
 511.677734375 605 475.73046875 645 398.73046875 645 c 0
 319.73046875 645 261.97265625 601 215.864257812 538 c 1
 144.561523438 593 l 1
 201.725585938 679 292.482421875 740 415.482421875 740 c 0
 559.482421875 740 625.494140625 655 608.038085938 556 c 1
 503.038085938 556 l 1
EndSplineSet
Refer: 56 46 S 1 0 0.176327 1 145 0 2
EndChar

StartChar: at
Encoding: 64 64 85
Width: 1050
VWidth: 0
Flags: HMW
LayerCount: 2
Fore
SplineSet
725.844726562 260 m 4
 745.064453125 369 688.702148438 435 601.702148438 435 c 4
 514.702148438 435 435.064453125 369 415.844726562 260 c 0
 396.625 151 452.98828125 85 539.98828125 85 c 0
 626.98828125 85 706.625 151 725.844726562 260 c 4
760.844726562 260 m 0
 734.572265625 111 662.236328125 -10 513.236328125 -10 c 0
 384.236328125 -10 287.80859375 101 315.844726562 260 c 0
 343.880859375 419 479.453125 530 608.453125 530 c 0
 757.453125 530 787.118164062 409 760.844726562 260 c 0
871.690429688 520 m 1
 801.159179688 120 l 1
 697.6328125 100 l 1
 771.690429688 520 l 1
 871.690429688 520 l 1
100.844726562 260 m 0
 146.513671875 519 374.71875 730 653.71875 730 c 0
 912.71875 730 1093.56640625 559 1047.8984375 300 c 0
 1006.22167969 63.638671875 871.954101562 -10.2880859375 796.052734375 -10.2880859375 c 0
 701.979492188 -10.2880859375 687.6171875 43.19921875 697.6328125 100 c 1
 801.159179688 120 l 1
 790.673828125 60.53515625 796.6875 32.859375 833.172851562 32.859375 c 0
 884.440429688 32.859375 984.413085938 115.765625 1016.8984375 300 c 0
 1059.74511719 543 891.60546875 701 648.60546875 701 c 0
 385.60546875 701 174.692382812 503 131.844726562 260 c 0
 88.998046875 17 250.084960938 -181 493.084960938 -181 c 1
 487.971679688 -210 l 1
 228.971679688 -210 55.1767578125 1 100.844726562 260 c 0
EndSplineSet
EndChar

StartChar: bracketleft
Encoding: 91 91 86
Width: 305
VWidth: 0
Flags: HMW
LayerCount: 2
Fore
SplineSet
246.791015625 634 m 1
 263.71875 730 l 1
 413.71875 730 l 1
 396.791015625 634 l 1
 246.791015625 634 l 1
99.734375 -200 m 1
 116.662109375 -104 l 5
 266.662109375 -104 l 5
 249.734375 -200 l 1
 99.734375 -200 l 1
173.71875 730 m 1
 273.71875 730 l 1
 109.734375 -200 l 1
 9.734375 -200 l 1
 173.71875 730 l 1
EndSplineSet
EndChar

StartChar: asciicircum
Encoding: 94 94 88
Width: 510
VWidth: 0
Flags: HMW
LayerCount: 2
Fore
SplineSet
475.8203125 430 m 5
 328.71875 730 l 1
 438.71875 730 l 1
 565.8203125 430 l 1
 475.8203125 430 l 5
328.71875 730 m 1
 438.71875 730 l 1
 185.8203125 430 l 1
 95.8203125 430 l 1
 328.71875 730 l 1
EndSplineSet
EndChar

StartChar: underscore
Encoding: 95 95 89
Width: 600
VWidth: 0
Flags: HMW
LayerCount: 2
Fore
SplineSet
-14.3427734375 -70 m 5
 589.657226562 -70 l 5
 572.024414062 -170 l 1
 -31.9755859375 -170 l 1
 -14.3427734375 -70 l 5
EndSplineSet
EndChar

StartChar: braceleft
Encoding: 123 123 90
Width: 369
VWidth: 0
Flags: HMW
LayerCount: 2
Fore
SplineSet
110.54296875 315 m 5
 128.54296875 315 l 5
 110.91015625 215 l 1
 92.91015625 215 l 1
 110.54296875 315 l 5
173.44921875 150 m 1
 273.44921875 150 l 1
 241.709960938 -30 l 1
 138.18359375 -50 l 1
 173.44921875 150 l 1
249.26953125 580 m 1
 345.743164062 560 l 1
 314.00390625 380 l 1
 214.00390625 380 l 1
 249.26953125 580 l 1
214.00390625 380 m 1
 314.00390625 380 l 1
 300.07421875 301 222.318359375 240 103.318359375 240 c 1
 110.54296875 315 l 5
 198.54296875 315 206.951171875 340 214.00390625 380 c 1
173.44921875 150 m 1
 180.501953125 190 170.91015625 215 92.91015625 215 c 1
 112.134765625 290 l 5
 231.134765625 290 287.37890625 229 273.44921875 150 c 1
 173.44921875 150 l 1
345.743164062 560 m 1
 249.26953125 580 l 1
 263.19921875 659 342.71875 730 461.71875 730 c 1
 450.967773438 635 l 1
 372.967773438 635 352.795898438 600 345.743164062 560 c 1
241.709960938 -30 m 1
 234.657226562 -70 242.485351562 -105 320.485351562 -105 c 1
 297.734375 -200 l 1
 178.734375 -200 124.25390625 -129 138.18359375 -50 c 1
 241.709960938 -30 l 1
EndSplineSet
EndChar

StartChar: bar
Encoding: 124 124 92
Width: 320
VWidth: 0
Flags: HMW
LayerCount: 2
Fore
SplineSet
342.53515625 780 m 5
 190.893554688 -80 l 5
 100.893554688 -80 l 1
 252.53515625 780 l 1
 342.53515625 780 l 5
EndSplineSet
EndChar

StartChar: asciitilde
Encoding: 126 126 93
Width: 470
VWidth: 0
Flags: HMW
LayerCount: 2
Fore
SplineSet
145.680664062 174 m 5
 79.20703125 194 l 5
 97.572265625 272.260742188 151.633789062 310.638671875 203.004882812 310.638671875 c 4
 266.619140625 310.638671875 310.911132812 246.962890625 355.153320312 246.962890625 c 4
 399.654296875 246.962890625 413.770507812 276.58984375 420.366210938 314 c 5
 476.83984375 294 l 5
 456.711914062 205.739257812 405.262695312 177.361328125 355.094726562 177.361328125 c 4
 293.536132812 177.361328125 252.33203125 241.037109375 209.748046875 241.037109375 c 4
 165.947265625 241.037109375 152.27734375 211.41015625 145.680664062 174 c 5
EndSplineSet
EndChar

StartChar: tilde
Encoding: 732 732 98
Width: 500
VWidth: 0
Flags: HMW
AnchorPoint: "dot" 357.56 610 basechar 0
LayerCount: 2
Fore
SplineSet
235.795898438 600 m 1
 158.322265625 620 l 5
 176.6875 698.260742188 241.749023438 736.638671875 293.120117188 736.638671875 c 0
 356.734375 736.638671875 404.553710938 692.962890625 448.795898438 692.962890625 c 4
 483.296875 692.962890625 503.885742188 702.58984375 510.482421875 740 c 1
 586.955078125 720 l 1
 566.827148438 631.739257812 495.377929688 603.361328125 445.209960938 603.361328125 c 0
 383.651367188 603.361328125 338.920898438 647.037109375 296.336914062 647.037109375 c 4
 262.536132812 647.037109375 242.392578125 637.41015625 235.795898438 600 c 1
EndSplineSet
EndChar

StartChar: dotaccent
Encoding: 729 729 99
Width: 500
VWidth: 0
Flags: HMW
AnchorPoint: "dot" 354.033 590 basechar 0
LayerCount: 2
Fore
SplineSet
290.670898438 656 m 0
 298.076171875 698 338.071289062 732 379.071289062 732 c 0
 420.071289062 732 448.076171875 698 440.670898438 656 c 0
 433.264648438 614 393.26953125 580 352.26953125 580 c 0
 311.26953125 580 283.264648438 614 290.670898438 656 c 0
EndSplineSet
EndChar

StartChar: ring
Encoding: 730 730 100
Width: 500
VWidth: 0
Flags: HMW
AnchorPoint: "ring" 354.033 590 basechar 0
LayerCount: 2
Fore
SplineSet
319.90234375 680 m 0
 314.7890625 651 332.0859375 630 361.0859375 630 c 0
 390.0859375 630 414.7890625 651 419.90234375 680 c 0
 425.015625 709 407.71875 730 378.71875 730 c 4
 349.71875 730 325.015625 709 319.90234375 680 c 0
269.90234375 680 m 0
 279.600585938 735 332.53515625 780 387.53515625 780 c 0
 442.53515625 780 479.600585938 735 469.90234375 680 c 0
 460.204101562 625 407.26953125 580 352.26953125 580 c 0
 297.26953125 580 260.204101562 625 269.90234375 680 c 0
EndSplineSet
EndChar

StartChar: breve
Encoding: 728 728 101
Width: 500
VWidth: 0
Flags: HMW
AnchorPoint: "dot" 344.33 569 basechar 0
LayerCount: 2
Fore
SplineSet
361.962890625 669 m 1
 311.962890625 669 281.194335938 693 289.658203125 741 c 5
 193.600585938 735 l 5
 176.143554688 636 235.330078125 569 344.330078125 569 c 1
 361.962890625 669 l 1
361.962890625 669 m 1
 344.330078125 569 l 1
 453.330078125 569 536.143554688 636 553.600585938 735 c 5
 459.658203125 741 l 5
 451.194335938 693 411.962890625 669 361.962890625 669 c 1
EndSplineSet
EndChar

StartChar: circumflex
Encoding: 710 710 102
Width: 500
VWidth: 0
Flags: HMW
AnchorPoint: "dot" 361.086 630 basechar 0
LayerCount: 2
Fore
SplineSet
426.0859375 630 m 1
 343.71875 730 l 1
 433.71875 730 l 1
 516.0859375 630 l 1
 426.0859375 630 l 1
323.71875 730 m 5
 413.71875 730 l 1
 296.0859375 630 l 1
 206.0859375 630 l 5
 323.71875 730 l 5
EndSplineSet
EndChar

StartChar: caron
Encoding: 711 711 103
Width: 500
VWidth: 0
Flags: HMW
AnchorPoint: "dot" 361.086 630 basechar 0
LayerCount: 2
Fore
SplineSet
313.71875 730 m 1
 396.0859375 630 l 1
 306.0859375 630 l 5
 223.71875 730 l 5
 313.71875 730 l 1
416.0859375 630 m 1
 326.0859375 630 l 1
 443.71875 730 l 1
 533.71875 730 l 1
 416.0859375 630 l 1
EndSplineSet
EndChar

StartChar: cent
Encoding: 162 162 105
Width: 600
VWidth: 0
Flags: HMW
LayerCount: 2
Fore
SplineSet
415 600 m 5
 475 600 l 5
 355 -80 l 1
 295 -80 l 1
 415 600 l 5
EndSplineSet
Refer: 30 99 N 1 0 0 1 10 0 2
EndChar

StartChar: sterling
Encoding: 163 163 108
Width: 600
VWidth: 0
Flags: HMW
LayerCount: 2
Fore
SplineSet
162.934570312 45 m 1
 56.8232421875 -1 l 5
 275.056640625 272.541992188 154.181640625 278.921875 198.453125 530 c 1
 298.453125 530 l 1
 266.029296875 346.112304688 343.745117188 219.735351562 162.934570312 45 c 1
140.591796875 -25 m 1
 56.8232421875 -1 l 5
 145.188476562 77.2607421875 203.017578125 91.638671875 274.388671875 91.638671875 c 0
 338.002929688 91.638671875 372.5859375 57.962890625 416.828125 57.962890625 c 0
 461.329101562 57.962890625 490.681640625 77.58984375 517.27734375 115 c 1
 567.342773438 70 l 1
 527.21484375 -18.2607421875 458.41015625 -31.638671875 408.2421875 -31.638671875 c 0
 326.68359375 -31.638671875 276.953125 12.037109375 234.369140625 12.037109375 c 0
 190.568359375 12.037109375 165.424804688 2.41015625 140.591796875 -25 c 1
113.767578125 390 m 1
 411.767578125 390 l 1
 395.016601562 295 l 1
 97.0166015625 295 l 1
 113.767578125 390 l 1
413.44140625 615 m 1
 424.192382812 710 l 1
 506.192382812 710 567.962890625 669 594.559570312 610 c 1
 530.392578125 541 l 1
 510.26953125 580 467.44140625 615 413.44140625 615 c 1
298.453125 530 m 1
 198.453125 530 l 1
 217.672851562 639 305.192382812 710 424.192382812 710 c 1
 413.44140625 615 l 1
 348.44140625 615 308.856445312 589 298.453125 530 c 1
EndSplineSet
EndChar

StartChar: currency
Encoding: 164 164 109
Width: 600
VWidth: 0
Flags: HMW
LayerCount: 2
Fore
SplineSet
163.970703125 204 m 1
 214.21484375 143 l 1
 101.287109375 47 l 1
 51.04296875 108 l 1
 163.970703125 204 l 1
432.096679688 148 m 1
 502.852539062 209 l 5
 586.04296875 108 l 5
 515.287109375 47 l 1
 432.096679688 148 l 1
609.798828125 583 m 1
 660.04296875 522 l 1
 527.118164062 409 l 1
 476.874023438 470 l 1
 609.798828125 583 l 1
124.04296875 522 m 1
 195.798828125 583 l 1
 288.874023438 470 l 1
 217.118164062 409 l 1
 124.04296875 522 l 1
223.54296875 315 m 0
 209.965820312 238 255.5625 179 331.5625 179 c 0
 407.5625 179 473.965820312 238 487.54296875 315 c 0
 501.120117188 392 455.5234375 451 379.5234375 451 c 0
 303.5234375 451 237.120117188 392 223.54296875 315 c 0
139.54296875 315 m 0
 160.526367188 434 274.629882812 531 393.629882812 531 c 0
 512.629882812 531 592.526367188 434 571.54296875 315 c 0
 550.560546875 196 436.456054688 99 317.456054688 99 c 0
 198.456054688 99 118.560546875 196 139.54296875 315 c 0
EndSplineSet
EndChar

StartChar: brokenbar
Encoding: 166 166 111
Width: 300
VWidth: 0
Flags: HMW
LayerCount: 2
Fore
SplineSet
266.110351562 460 m 5
 196.110351562 460 l 5
 252.53515625 780 l 1
 322.53515625 780 l 1
 266.110351562 460 l 5
234.37109375 280 m 1
 170.893554688 -80 l 1
 100.893554688 -80 l 1
 164.37109375 280 l 1
 234.37109375 280 l 1
EndSplineSet
EndChar

StartChar: section
Encoding: 167 167 112
Width: 520
VWidth: 0
Flags: HMW
LayerCount: 2
Fore
SplineSet
419.685546875 140 m 1
 499.685546875 140 l 1
 485.755859375 61 412.236328125 -10 273.236328125 -10 c 0
 164.236328125 -10 106.524414062 37 63.337890625 104 c 1
 127.331054688 155 l 1
 164.514648438 105 208.4609375 65 286.4609375 65 c 0
 359.4609375 65 410.869140625 90 419.685546875 140 c 1
330.60546875 287 m 0
 444.255859375 268 520.844726562 260 499.685546875 140 c 1
 419.685546875 140 l 1
 426.739257812 180 393.994140625 200.76171875 288.086914062 216 c 0
 187.169921875 230.520507812 67.8349609375 328 233.40234375 473 c 5
 293.40234375 473 l 5
 170.48046875 343 235.684570312 302.869140625 330.60546875 287 c 0
271.03515625 573 m 1
 191.03515625 573 l 1
 204.436523438 649 291.192382812 710 400.192382812 710 c 0
 509.192382812 710 554.138671875 670 588.733398438 628 c 1
 530.03515625 573 l 1
 497.854492188 606 464.967773438 635 386.967773438 635 c 0
 308.967773438 635 276.677734375 605 271.03515625 573 c 1
387.810546875 498 m 0
 501.4609375 479 625.53125 400 459.08203125 250 c 5
 399.08203125 250 l 5
 522.00390625 380 451.19921875 411.76171875 345.291992188 427 c 0
 244.374023438 441.520507812 174.284179688 478 191.03515625 573 c 1
 271.03515625 573 l 1
 262.21875 523 292.889648438 513.869140625 387.810546875 498 c 0
EndSplineSet
EndChar

StartChar: copyright
Encoding: 169 169 114
Width: 850
VWidth: 0
Flags: HMW
LayerCount: 2
Fore
SplineSet
113 350 m 0
 113 174 254 30 425 30 c 0
 596 30 737 174 737 350 c 0
 737 526 596 670 425 670 c 0
 254 670 113 526 113 350 c 0
70 350 m 0
 70 549 230 710 425 710 c 0
 620 710 780 549 780 350 c 0
 780 151 620 -10 425 -10 c 0
 230 -10 70 151 70 350 c 0
EndSplineSet
Refer: 8 67 N 0.5 0 0 0.5 220.5 175 2
EndChar

StartChar: registered
Encoding: 174 174 116
Width: 850
VWidth: 0
Flags: HMW
LayerCount: 2
Fore
SplineSet
113 350 m 0
 113 174 254 30 425 30 c 0
 596 30 737 174 737 350 c 0
 737 526 596 670 425 670 c 0
 254 670 113 526 113 350 c 0
70 350 m 0
 70 549 230 710 425 710 c 0
 620 710 780 549 780 350 c 0
 780 151 620 -10 425 -10 c 0
 230 -10 70 151 70 350 c 0
EndSplineSet
Refer: 17 82 S 0.5 0 0 0.5 252 175 2
EndChar

StartChar: degree
Encoding: 176 176 119
Width: 400
VWidth: 0
Flags: HMW
LayerCount: 2
Fore
SplineSet
249.90234375 680 m 0
 243.025390625 641 268.559570312 610 307.559570312 610 c 0
 346.559570312 610 383.025390625 641 389.90234375 680 c 0
 396.779296875 719 371.245117188 750 332.245117188 750 c 0
 293.245117188 750 256.779296875 719 249.90234375 680 c 0
219.90234375 680 m 0
 229.600585938 735 282.53515625 780 337.53515625 780 c 0
 392.53515625 780 429.600585938 735 419.90234375 680 c 0
 410.204101562 625 357.26953125 580 302.26953125 580 c 0
 247.26953125 580 210.204101562 625 219.90234375 680 c 0
EndSplineSet
EndChar

StartChar: mu
Encoding: 181 181 120
Width: 635
VWidth: 0
Flags: HMW
LayerCount: 2
Fore
SplineSet
120 220 m 1
 220 220 l 1
 140 -198 l 5
 40 -198 l 5
 120 220 l 1
EndSplineSet
Refer: 40 117 N 1 0 0 1 0 0 2
EndChar

StartChar: grave
Encoding: 96 96 123
Width: 320
VWidth: 0
Flags: HMW
AnchorPoint: "dot" 304.033 590 basechar 0
LayerCount: 2
Fore
SplineSet
284.033203125 590 m 1
 188.71875 730 l 1
 308.71875 730 l 5
 364.033203125 590 l 5
 284.033203125 590 l 1
EndSplineSet
EndChar

StartChar: acute
Encoding: 180 180 124
Width: 320
VWidth: 0
Flags: HMW
AnchorPoint: "dot" 224.033 590 basechar 0
LayerCount: 2
Fore
SplineSet
244.033203125 590 m 1
 164.033203125 590 l 5
 268.71875 730 l 5
 388.71875 730 l 1
 244.033203125 590 l 1
EndSplineSet
EndChar

StartChar: logicalnot
Encoding: 172 172 126
Width: 540
VWidth: 0
Flags: HMW
LayerCount: 2
Fore
SplineSet
481.702148438 435 m 5
 551.702148438 435 l 5
 523.490234375 275 l 5
 453.490234375 275 l 5
 481.702148438 435 l 5
EndSplineSet
Refer: 78 45 S 1.13333 0 0.176327 1 8.96603 100 2
EndChar

StartChar: macron
Encoding: 175 175 127
Width: 300
VWidth: 0
Flags: HMW
LayerCount: 2
Fore
SplineSet
139.061523438 800 m 1
 443.061523438 800 l 5
 428.955078125 720 l 5
 124.955078125 720 l 1
 139.061523438 800 l 1
EndSplineSet
EndChar

StartChar: paragraph
Encoding: 182 182 130
Width: 600
VWidth: 0
Flags: HMW
LayerCount: 2
Fore
SplineSet
568.428710938 700 m 1
 560.670898438 656 l 1
 468.670898438 656 l 1
 476.428710938 700 l 1
 568.428710938 700 l 1
648.428710938 700 m 1
 525 0 l 1
 445 0 l 1
 568.428710938 700 l 1
 648.428710938 700 l 1
498.428710938 700 m 1
 375 0 l 1
 295 0 l 1
 418.428710938 700 l 1
 498.428710938 700 l 1
340.844726562 260 m 1
 241.844726562 260 136.890625 351 159.63671875 480 c 0
 182.3828125 609 319.428710938 700 418.428710938 700 c 1
 386.690429688 520 372.583984375 440 340.844726562 260 c 1
EndSplineSet
EndChar

StartChar: cedilla
Encoding: 184 184 131
Width: 320
VWidth: 0
Flags: HMW
AnchorPoint: "ced" 145.823 -1 basechar 0
LayerCount: 2
Fore
SplineSet
89.2900390625 30 m 1
 129.290039062 30 l 1
 173.294921875 -4 241.241210938 -44 231.014648438 -102 c 0
 220.963867188 -159 192.79296875 -194 115.79296875 -194 c 0
 78.79296875 -194 43.2607421875 -180 24.90625 -165 c 1
 55.4853515625 -105 l 5
 69.193359375 -118 90.0771484375 -130 110.077148438 -130 c 0
 141.077148438 -130 156.6640625 -121 160.543945312 -99 c 0
 166.71484375 -64 129.413085938 -9 89.2900390625 30 c 1
EndSplineSet
EndChar

StartChar: dotlessi
Encoding: 305 305 225
Width: 270
VWidth: 0
Flags: HMW
AnchorPoint: "ced" 135 0 basechar 0
LayerCount: 2
Fore
SplineSet
176.690429688 520 m 1
 276.690429688 520 l 1
 185 0 l 1
 85 0 l 1
 176.690429688 520 l 1
EndSplineSet
EndChar

StartChar: uni0237
Encoding: 567 567 349
Width: 270
VWidth: 0
Flags: HMW
LayerCount: 2
Fore
SplineSet
180.690429688 520 m 1
 280.690429688 520 l 1
 178.419921875 -60 l 1
 78.419921875 -60 l 1
 180.690429688 520 l 1
17.72265625 -115 m 5
 6.9716796875 -210 l 1
 -50.0283203125 -210 -97.20703125 -194 -118.211914062 -160 c 1
 -66.2822265625 -81 l 5
 -52.6328125 -100 -25.27734375 -115 17.72265625 -115 c 5
78.419921875 -60 m 1
 178.419921875 -60 l 1
 164.490234375 -139 95.9716796875 -210 6.9716796875 -210 c 1
 17.72265625 -115 l 5
 54.72265625 -115 71.3671875 -100 78.419921875 -60 c 1
EndSplineSet
EndChar

StartChar: kgreenlandic
Encoding: 312 312 573
Width: 590
VWidth: 0
Flags: HMW
AnchorPoint: "dot" 325 673 basechar 0
AnchorPoint: "ced" 515 0 basechar 0
LayerCount: 2
Fore
SplineSet
245 291 m 1
 345 305 l 5
 565 0 l 5
 455 0 l 1
 245 291 l 1
430 520 m 1
 545 520 l 5
 185 110 l 5
 110 154 l 1
 430 520 l 1
85 520 m 1
 185 520 l 5
 185 0 l 5
 85 0 l 1
 85 520 l 1
EndSplineSet
EndChar

StartChar: ogonek
Encoding: 731 731 574
Width: 320
VWidth: 0
Flags: HMW
AnchorPoint: "ced" 149 0 basechar 0
LayerCount: 2
Fore
SplineSet
214.290039062 30 m 1
 160.413085938 -9 103.71484375 -64 97.5439453125 -99 c 0
 93.6640625 -121 106.077148438 -130 137.077148438 -130 c 0
 167.077148438 -130 189.193359375 -118 198.72265625 -115 c 1
 209.90625 -165 l 1
 186.260742188 -180 145.79296875 -194 108.79296875 -194 c 4
 41.79296875 -194 15.9638671875 -159 26.0146484375 -102 c 4
 36.2412109375 -44 118.294921875 -4 174.290039062 30 c 1
 214.290039062 30 l 1
EndSplineSet
EndChar

StartChar: AE
Encoding: 198 198 582
Width: 1090
VWidth: 0
Flags: HMW
LayerCount: 2
Fore
SplineSet
440 700 m 1
 565 700 l 1
 560 600 l 5
 440 600 l 5
 440 700 l 1
204 260 m 1
 596 260 l 1
 596 165 l 1
 204 165 l 1
 204 260 l 1
440 700 m 1
 535 690 l 1
 145 0 l 1
 40 0 l 1
 440 700 l 1
EndSplineSet
Refer: 0 69 N 1 0 0 1 430 0 2
EndChar

StartChar: fi
Encoding: 64257 64257 585
Width: 385
VWidth: 0
Flags: HMW
AnchorPoint: "ced" 168 0 basechar 0
LayerCount: 2
Fore
SplineSet
136.690429688 520 m 1
 449.690429688 520 l 1
 432.939453125 425 l 1
 119.939453125 425 l 1
 136.690429688 520 l 1
324.033203125 590 m 1
 220 0 l 1
 115 0 l 1
 219.033203125 590 l 1
 324.033203125 590 l 1
324.033203125 590 m 1
 219.033203125 590 l 1
 232.962890625 669 305.482421875 740 404.482421875 740 c 5
 393.73046875 645 l 1
 348.73046875 645 329.146484375 619 324.033203125 590 c 1
393.73046875 645 m 5
 404.482421875 740 l 1
 443.189453125 740 473.827148438 731.815429688 494.947265625 708.608398438 c 1
 477.735351562 611 l 1
 463.204101562 625 437.73046875 645 393.73046875 645 c 5
EndSplineSet
EndChar
